<svg width="539" height="178" viewBox="0 0 539 178" fill="none" xmlns="http://www.w3.org/2000/svg">
<rect width="176.681" height="176.547" rx="21" fill="white"/>
<path d="M177 159.141V55.5605C177 55.5605 168.451 49.9479 155.174 55.5606C141.898 61.1732 133.596 84.6446 133.596 84.6446C133.596 84.6446 94.7869 24.9454 58.1526 74.4397C21.5183 123.934 95.8083 177 95.8083 177H159.638C174.578 177 177 159.141 177 159.141Z" fill="#FCA311" stroke="#FCA311"/>
<path d="M278.826 80.005V86H253.756V80.005L261.386 77.062L255.5 61.039H223.345L217.35 77.171L225.089 80.005V86H201.872V80.005L209.393 76.626L234.245 11.008H246.453L271.305 76.517L278.826 80.005ZM252.666 53.3L239.477 17.548L226.179 53.3H252.666ZM384.521 80.005V86H367.953V49.921C367.953 45.6337 367.008 42.5453 365.119 40.656C363.23 38.694 360.432 37.713 356.726 37.713C354.183 37.713 351.821 38.04 349.641 38.694C347.534 39.2753 344.046 40.438 339.177 42.182V76.735L346.589 80.005V86H330.021V49.921C330.021 45.6337 329.076 42.5453 327.187 40.656C325.298 38.694 322.5 37.713 318.794 37.713C316.323 37.713 313.998 38.04 311.818 38.694C309.711 39.2753 306.186 40.438 301.245 42.182V76.735L308.657 80.005V86H284.677V80.005L292.089 76.735V40.547L284.677 37.495V31.282H296.776L299.61 35.751C303.897 33.571 307.749 32.045 311.164 31.173C314.579 30.2283 318.104 29.756 321.737 29.756C325.37 29.756 328.386 30.2647 330.784 31.282C333.255 32.2993 335.289 33.898 336.888 36.078C341.248 33.8253 345.172 32.2267 348.66 31.282C352.221 30.2647 355.89 29.756 359.669 29.756C364.029 29.756 367.481 30.4827 370.024 31.936C372.567 33.3167 374.384 35.5693 375.474 38.694C376.564 41.746 377.109 45.888 377.109 51.12V76.735L384.521 80.005ZM420.499 29.756C428.855 29.756 435.541 32.0813 440.555 36.732C445.641 41.31 448.185 48.613 448.185 58.641C448.185 68.669 445.641 76.0083 440.555 80.659C435.541 85.237 428.855 87.526 420.499 87.526C412.142 87.526 405.42 85.237 400.334 80.659C395.32 76.0083 392.813 68.669 392.813 58.641C392.813 48.613 395.32 41.31 400.334 36.732C405.42 32.0813 412.142 29.756 420.499 29.756ZM420.499 37.604C416.139 37.604 412.651 38.2217 410.035 39.457C407.491 40.6923 405.566 42.836 404.258 45.888C403.022 48.94 402.405 53.191 402.405 58.641C402.405 64.091 403.022 68.342 404.258 71.394C405.566 74.446 407.491 76.5897 410.035 77.825C412.651 79.0603 416.139 79.678 420.499 79.678C424.859 79.678 428.31 79.0603 430.854 77.825C433.47 76.5897 435.395 74.446 436.631 71.394C437.939 68.342 438.593 64.091 438.593 58.641C438.593 53.191 437.939 48.94 436.631 45.888C435.395 42.836 433.47 40.6923 430.854 39.457C428.31 38.2217 424.859 37.604 420.499 37.604ZM495.692 29.538C498.889 29.538 501.214 30.301 502.668 31.827C504.121 33.353 504.848 35.7147 504.848 38.912C504.848 44.798 501.505 47.741 494.82 47.741L490.46 37.931C487.626 38.6577 484.755 39.675 481.849 40.983C479.015 42.2183 476.471 43.5627 474.219 45.016V76.735L484.356 80.005V86H457.651V80.005L465.063 76.735V40.547L457.651 37.495V31.282H469.75L473.892 37.822C477.525 35.1333 481.231 33.0987 485.01 31.718C488.788 30.2647 492.349 29.538 495.692 29.538Z" fill="#FCA311"/>
<path d="M252.16 154.49V159H239.696V131.858C239.696 128.633 238.903 126.309 237.318 124.888C235.787 123.412 233.519 122.674 230.512 122.674C228.599 122.674 226.713 122.92 224.854 123.412C223.05 123.904 220.399 124.779 216.9 126.036V152.03L223.296 154.49V159H204.436V154.49L210.012 152.03V124.806L204.436 122.51V117.836H213.538L215.67 121.198C218.731 119.613 221.629 118.465 224.362 117.754C227.095 117.043 229.883 116.688 232.726 116.688C236.17 116.688 238.903 117.235 240.926 118.328C242.949 119.367 244.397 121.061 245.272 123.412C246.147 125.708 246.584 128.824 246.584 132.76V152.03L252.16 154.49ZM279.227 116.688C285.514 116.688 290.543 118.437 294.315 121.936C298.142 125.38 300.055 130.874 300.055 138.418C300.055 145.962 298.142 151.483 294.315 154.982C290.543 158.426 285.514 160.148 279.227 160.148C272.94 160.148 267.884 158.426 264.057 154.982C260.285 151.483 258.399 145.962 258.399 138.418C258.399 130.874 260.285 125.38 264.057 121.936C267.884 118.437 272.94 116.688 279.227 116.688ZM279.227 122.592C275.947 122.592 273.323 123.057 271.355 123.986C269.442 124.915 267.993 126.528 267.009 128.824C266.08 131.12 265.615 134.318 265.615 138.418C265.615 142.518 266.08 145.716 267.009 148.012C267.993 150.308 269.442 151.921 271.355 152.85C273.323 153.779 275.947 154.244 279.227 154.244C282.507 154.244 285.104 153.779 287.017 152.85C288.985 151.921 290.434 150.308 291.363 148.012C292.347 145.716 292.839 142.518 292.839 138.418C292.839 134.318 292.347 131.12 291.363 128.824C290.434 126.528 288.985 124.915 287.017 123.986C285.104 123.057 282.507 122.592 279.227 122.592ZM356.809 116.688C362.275 116.688 366.485 118.41 369.437 121.854C372.389 125.298 373.865 130.874 373.865 138.582C373.865 143.994 373.263 148.258 372.061 151.374C370.858 154.435 369.054 156.622 366.649 157.934C364.298 159.191 361.264 159.82 357.547 159.82C354.321 159.82 351.424 159.328 348.855 158.344C346.34 157.305 343.989 155.747 341.803 153.67V170.398L348.199 172.858V177.368H329.339V172.858L334.915 170.398V124.806L329.339 122.51V117.836H338.441L340.983 121.772C343.88 119.968 346.586 118.683 349.101 117.918C351.615 117.098 354.185 116.688 356.809 116.688ZM356.153 153.834C358.613 153.834 360.608 153.424 362.139 152.604C363.669 151.729 364.79 150.226 365.501 148.094C366.266 145.962 366.649 143.01 366.649 139.238C366.649 133.607 365.747 129.453 363.943 126.774C362.193 124.041 359.269 122.674 355.169 122.674C353.255 122.674 351.397 122.92 349.593 123.412C347.843 123.904 345.247 124.779 341.803 126.036V148.504C346.285 152.057 351.069 153.834 356.153 153.834ZM401.827 116.688C408.113 116.688 413.143 118.437 416.915 121.936C420.741 125.38 422.655 130.874 422.655 138.418C422.655 145.962 420.741 151.483 416.915 154.982C413.143 158.426 408.113 160.148 401.827 160.148C395.54 160.148 390.483 158.426 386.657 154.982C382.885 151.483 380.999 145.962 380.999 138.418C380.999 130.874 382.885 125.38 386.657 121.936C390.483 118.437 395.54 116.688 401.827 116.688ZM401.827 122.592C398.547 122.592 395.923 123.057 393.955 123.986C392.041 124.915 390.593 126.528 389.609 128.824C388.679 131.12 388.215 134.318 388.215 138.418C388.215 142.518 388.679 145.716 389.609 148.012C390.593 150.308 392.041 151.921 393.955 152.85C395.923 153.779 398.547 154.244 401.827 154.244C405.107 154.244 407.703 153.779 409.617 152.85C411.585 151.921 413.033 150.308 413.963 148.012C414.947 145.716 415.439 142.518 415.439 138.418C415.439 134.318 414.947 131.12 413.963 128.824C413.033 126.528 411.585 124.915 409.617 123.986C407.703 123.057 405.107 122.592 401.827 122.592ZM449.21 159.656C443.962 159.656 440.19 158.59 437.894 156.458C435.653 154.326 434.532 150.718 434.532 145.634V123.576H428.136V118.984L434.532 117.836L436.992 105.946H441.42V117.836L455.442 117.918V123.658L441.42 123.576V145.634C441.42 147.875 441.693 149.57 442.24 150.718C442.787 151.866 443.689 152.659 444.946 153.096C446.203 153.533 448.035 153.752 450.44 153.752C452.299 153.752 454.239 153.561 456.262 153.178V158.918C454.294 159.41 451.943 159.656 449.21 159.656ZM482.7 116.688C488.276 116.688 492.786 118.437 496.23 121.936C499.729 125.38 501.478 130.519 501.478 137.352V140.632H469.334C469.607 144.295 470.263 147.11 471.302 149.078C472.395 150.991 473.953 152.331 475.976 153.096C478.053 153.861 480.896 154.244 484.504 154.244C489.697 154.244 494.836 153.615 499.92 152.358V158.262C497.788 158.809 495.301 159.246 492.458 159.574C489.615 159.957 486.909 160.148 484.34 160.148C477.069 160.148 471.548 158.508 467.776 155.228C464.004 151.948 462.118 146.345 462.118 138.418C462.118 131.038 463.977 125.571 467.694 122.018C471.411 118.465 476.413 116.688 482.7 116.688ZM482.29 122.592C478.026 122.592 474.91 123.549 472.942 125.462C470.974 127.375 469.799 130.491 469.416 134.81H494.18C493.852 130.765 492.731 127.731 490.818 125.708C488.905 123.631 486.062 122.592 482.29 122.592Z" fill="white"/>
</svg>
